<svg width="24" height="23" viewBox="0 0 24 23" fill="none" xmlns="http://www.w3.org/2000/svg">
<g clip-path="url(#clip0)">
<path d="M21.5833 20.2847H21.1666V8.70483C21.1666 8.48441 20.98 8.30551 20.75 8.30551H18.25C18.02 8.30551 17.8333 8.48441 17.8333 8.70483V20.2847H16.1666V13.4965C16.1666 13.2761 15.9799 13.0972 15.7499 13.0972H13.2499C13.0199 13.0972 12.8332 13.2761 12.8332 13.4965V20.2847H11.1666V11.8993C11.1666 11.6788 10.9799 11.4999 10.7499 11.4999H8.24988C8.01988 11.4999 7.8332 11.6788 7.8332 11.8993V20.2847H6.16652V15.8923C6.16652 15.6719 5.97984 15.493 5.74984 15.493H3.25C3.02 15.493 2.83332 15.6719 2.83332 15.8923V20.2847H2.41668C2.18668 20.2847 2 20.4636 2 20.684C2 20.9044 2.18668 21.0833 2.41668 21.0833H3.25H5.75H8.25H10.75H13.25H15.75H18.25H20.75H21.5833C21.8133 21.0833 22 20.9044 22 20.684C22 20.4636 21.8133 20.2847 21.5833 20.2847Z" fill="#808191"/>
<path d="M19.5001 1.91666C18.5809 1.91666 17.8334 2.63301 17.8334 3.51389C17.8334 3.80936 17.9234 4.08249 18.0692 4.3205L15.3417 6.93436C15.0934 6.79457 14.8084 6.70832 14.5001 6.70832C13.9776 6.70832 13.5159 6.94473 13.2101 7.3065L11.1626 6.74666C11.1626 6.73389 11.1667 6.72191 11.1667 6.70832C11.1667 5.82744 10.4192 5.11109 9.50005 5.11109C8.58087 5.11109 7.83337 5.82744 7.83337 6.70832C7.83337 6.94072 7.88755 7.15953 7.98087 7.35838L5.37669 9.34932C5.12173 9.19598 4.82255 9.10416 4.50005 9.10416C3.58087 9.10416 2.83337 9.82051 2.83337 10.7014C2.83337 11.5823 3.58087 12.2986 4.50005 12.2986C5.41923 12.2986 6.16673 11.5823 6.16673 10.7014C6.16673 10.4211 6.08423 10.1607 5.95091 9.93154L8.50341 7.98055C8.78259 8.1818 9.12509 8.3056 9.50009 8.3056C10.1109 8.3056 10.6409 7.98534 10.9309 7.51418L12.8617 8.04205C12.8459 8.1283 12.8334 8.21534 12.8334 8.3056C12.8334 9.18648 13.5809 9.90283 14.5001 9.90283C15.4193 9.90283 16.1668 9.18648 16.1668 8.3056C16.1668 8.01012 16.0768 7.737 15.931 7.49899L18.6593 4.88435C18.9068 5.02491 19.1918 5.11116 19.5001 5.11116C20.4193 5.11116 21.1668 4.39481 21.1668 3.51393C21.1667 2.63301 20.4192 1.91666 19.5001 1.91666Z" fill="#808191"/>
</g>
<defs>
<clipPath id="clip0">
<rect width="20" height="19.1667" fill="white" transform="translate(2 1.91666)"/>
</clipPath>
</defs>
</svg>
