<svg width="19" height="20" viewBox="0 0 19 20" fill="none" xmlns="http://www.w3.org/2000/svg">
<path d="M9.48851 4.25211e-05C12.0307 4.25211e-05 14.1224 1.91929 14.38 4.38099L14.4516 4.38196C16.1947 4.38196 17.6528 5.69437 18.1564 7.98171L18.9419 14.0483C19.3909 17.8703 17.2043 20 13.546 20H5.44875C1.49286 20 -0.52845 18.1106 0.119222 13.8124L0.880106 7.94236C1.30058 5.68312 2.79724 4.38196 4.57864 4.38196C4.69723 3.26852 5.19596 2.22318 6.00043 1.4261C6.92727 0.507775 8.18357 -0.00537867 9.48851 4.25211e-05ZM14.4516 5.82969H4.57864C3.51393 5.82969 2.60614 6.6189 2.31697 8.16663L1.56021 14.0122C1.05418 17.3711 2.31775 18.5523 5.44875 18.5523H13.546C16.4375 18.5523 17.9105 17.0658 17.468 13.9973L16.7244 8.22993C16.3719 6.63797 15.4739 5.82969 14.4516 5.82969ZM12.3652 8.51644C12.767 8.51644 13.0927 8.84053 13.0927 9.24031C13.0927 9.60677 12.819 9.90963 12.4639 9.95756L12.3652 9.96417H12.3208C11.919 9.96417 11.5933 9.64009 11.5933 9.24031C11.5933 8.87384 11.867 8.57098 12.2221 8.52305L12.3208 8.51644H12.3652ZM6.70951 8.51644C7.11129 8.51644 7.437 8.84053 7.437 9.24031C7.437 9.60677 7.16331 9.90963 6.80822 9.95756L6.70951 9.96417H6.66512C6.26333 9.96417 5.93762 9.64009 5.93762 9.24031C5.93762 8.87384 6.21131 8.57098 6.5664 8.52305L6.66512 8.51644H6.70951ZM9.48545 1.44781C8.56439 1.44396 7.67973 1.80531 7.02708 2.45197C6.49739 2.97679 6.15593 3.65446 6.04607 4.38112L12.9137 4.38142C12.665 2.72127 11.2259 1.44782 9.48545 1.44781Z" fill="#808191"/>
</svg>
