<svg width="23" height="22" viewBox="0 0 23 22" fill="none" xmlns="http://www.w3.org/2000/svg">
<g clip-path="url(#clip0)">
<path d="M11.5 8.87866C13.6584 8.87866 15.4082 7.20498 15.4082 5.14038C15.4082 3.07579 13.6584 1.4021 11.5 1.4021C9.34156 1.4021 7.5918 3.07579 7.5918 5.14038C7.5918 7.20498 9.34156 8.87866 11.5 8.87866Z" fill="#808191"/>
<path d="M19.4062 8.87863C20.7708 8.87863 21.877 7.82055 21.877 6.51535C21.877 5.21015 20.7708 4.15207 19.4062 4.15207C18.0417 4.15207 16.9355 5.21015 16.9355 6.51535C16.9355 7.82055 18.0417 8.87863 19.4062 8.87863Z" fill="#808191"/>
<path d="M3.59375 8.87863C4.95828 8.87863 6.06445 7.82055 6.06445 6.51535C6.06445 5.21015 4.95828 4.15207 3.59375 4.15207C2.22922 4.15207 1.12305 5.21015 1.12305 6.51535C1.12305 7.82055 2.22922 8.87863 3.59375 8.87863Z" fill="#808191"/>
<path d="M6.02807 11.0009C5.05551 10.2387 4.17472 10.3396 3.0502 10.3396C1.36832 10.3396 0 11.6407 0 13.2396V17.9322C0 18.6265 0.59252 19.1912 1.32115 19.1912C4.46685 19.1912 4.08789 19.2456 4.08789 19.0614C4.08789 15.7362 3.67614 13.2977 6.02807 11.0009Z" fill="#808191"/>
<path d="M12.5696 10.3567C10.6054 10.2 8.89818 10.3585 7.4256 11.5212C4.96132 13.4092 5.43556 15.9514 5.43556 19.0613C5.43556 19.8841 6.13544 20.5661 7.00872 20.5661C16.4909 20.5661 16.8683 20.8587 17.4306 19.6676C17.615 19.2648 17.5645 19.3928 17.5645 15.5396C17.5645 12.4791 14.794 10.3567 12.5696 10.3567Z" fill="#808191"/>
<path d="M19.9498 10.3395C18.8191 10.3395 17.9432 10.2397 16.9719 11.0008C19.3063 13.2806 18.9121 15.5527 18.9121 19.0614C18.9121 19.2467 18.5975 19.1911 21.6317 19.1911C22.3864 19.1911 23 18.6063 23 17.8874V13.2395C23 11.6406 21.6317 10.3395 19.9498 10.3395Z" fill="#808191"/>
</g>
<defs>
<clipPath id="clip0">
<rect width="23" height="22" fill="white"/>
</clipPath>
</defs>
</svg>
