<svg width="24" height="24" viewBox="0 0 24 24" fill="none" xmlns="http://www.w3.org/2000/svg">
<path d="M20.4046 18.7057C20.3632 16.1708 19.5376 13.8659 18.0697 12.1971C16.6103 10.5384 14.6325 9.625 12.5 9.625C10.3674 9.625 8.38962 10.5384 6.93024 12.1971C5.46373 13.8641 4.63865 16.1658 4.59552 18.6976C5.42478 19.0949 8.85636 20.625 12.5 20.625C16.44 20.625 19.6356 19.1039 20.4046 18.7057Z" fill="#808191"/>
<path d="M12.5 8.9375C14.6833 8.9375 16.4531 7.24458 16.4531 5.15625C16.4531 3.06792 14.6833 1.375 12.5 1.375C10.3167 1.375 8.54688 3.06792 8.54688 5.15625C8.54688 7.24458 10.3167 8.9375 12.5 8.9375Z" fill="#808191"/>
</svg>
