<svg width="16" height="16" viewBox="0 0 16 16" fill="none" xmlns="http://www.w3.org/2000/svg">
<g clip-path="url(#clip0)">
<path d="M8.28595 15.9905C9.50948 15.8167 10.5821 14.5397 11.257 12.6538C10.2813 12.4353 9.28566 12.318 8.28595 12.304V15.9905Z" fill="#808191"/>
<path d="M10.2407 15.6906C10.313 15.6697 10.3851 15.6486 10.4566 15.6254C10.5169 15.606 10.5764 15.5851 10.6359 15.5643C10.7062 15.54 10.7763 15.515 10.8461 15.4884C10.9056 15.4658 10.9645 15.4418 11.0236 15.4178C11.0917 15.3892 11.1597 15.3607 11.227 15.3321C11.2858 15.3062 11.3442 15.2791 11.4025 15.2519C11.4686 15.2208 11.5343 15.1891 11.5995 15.1561C11.6568 15.127 11.7139 15.0972 11.7711 15.0666C11.8352 15.0323 11.8989 14.9972 11.9621 14.9612C12.0194 14.9288 12.0745 14.8963 12.1302 14.8628C12.1922 14.8247 12.254 14.7865 12.3153 14.7484C12.3701 14.7135 12.4249 14.6781 12.4789 14.6415C12.5392 14.6008 12.5987 14.5585 12.6579 14.5162C12.7111 14.4781 12.764 14.4401 12.8159 14.4019C12.8732 14.3578 12.9318 14.3121 12.9892 14.2663C13.0402 14.2257 13.091 14.1853 13.1411 14.1436C13.1982 14.0961 13.253 14.047 13.3084 13.9978C13.357 13.9547 13.4059 13.9119 13.4533 13.8677C13.5079 13.8167 13.5611 13.7639 13.6143 13.7116C13.6604 13.6661 13.707 13.6213 13.7521 13.5746C13.7605 13.566 13.7685 13.5566 13.7771 13.5477C13.1534 13.2256 12.4965 12.9727 11.8178 12.7937C11.4648 13.9193 10.8366 14.9394 9.99023 15.7613C10.0134 15.7553 10.0366 15.7504 10.0598 15.7444C10.1209 15.7272 10.181 15.7083 10.2407 15.6906Z" fill="#808191"/>
<path d="M16 8.2925H12.5714C12.5584 9.63121 12.3642 10.962 11.9941 12.2486C12.7489 12.4502 13.4773 12.7401 14.1643 13.1122C15.2921 11.7528 15.9378 10.0579 16 8.2925Z" fill="#808191"/>
<path d="M8.28595 7.72061H11.9995C11.985 6.42923 11.7955 5.14581 11.4366 3.90526C10.4025 4.14108 9.34639 4.26702 8.28595 4.28099V7.72061Z" fill="#808191"/>
<path d="M8.28595 0.0226059V3.70909C9.28566 3.69499 10.2813 3.57784 11.257 3.35933C10.5821 1.47343 9.50948 0.196437 8.28595 0.0226059Z" fill="#808191"/>
<path d="M8.28595 11.7321C9.34639 11.7462 10.4025 11.8722 11.4366 12.108C11.7955 10.8674 11.985 9.58388 11.9995 8.2925H8.28595V11.7321Z" fill="#808191"/>
<path d="M14.1643 2.90094C13.4773 3.27304 12.7489 3.5629 11.9941 3.76451C12.3642 5.05114 12.5584 6.3819 12.5714 7.72061H16C15.9376 5.95535 15.292 4.26046 14.1643 2.90094Z" fill="#808191"/>
<path d="M13.7779 2.46714C13.7696 2.45862 13.7616 2.4494 13.7534 2.44061C13.7081 2.39397 13.6612 2.34901 13.6151 2.30364C13.5621 2.25128 13.5092 2.19836 13.4544 2.14754C13.4071 2.10342 13.3581 2.06167 13.3095 2.01769C13.2541 1.96854 13.1986 1.91897 13.1417 1.8715C13.0923 1.82975 13.0416 1.78982 12.9913 1.74975C12.9341 1.7034 12.8754 1.65732 12.8165 1.61306C12.7648 1.5741 12.7125 1.53641 12.6598 1.49871C12.6001 1.4557 12.54 1.41284 12.4792 1.37193C12.4257 1.33591 12.3714 1.30072 12.3171 1.26623C12.2552 1.22644 12.1935 1.18749 12.1305 1.14979C12.0754 1.1167 12.0197 1.08403 11.9638 1.05233C11.8999 1.01575 11.8358 0.980285 11.7711 0.945658C11.7139 0.917035 11.6568 0.885899 11.5995 0.857276C11.5338 0.824046 11.4674 0.792072 11.3995 0.760657C11.3422 0.73343 11.2841 0.706902 11.2252 0.681071C11.1575 0.651052 11.0891 0.623965 11.0208 0.595342C10.9619 0.571327 10.9032 0.547591 10.8437 0.524972C10.7744 0.498444 10.704 0.473591 10.6336 0.449296C10.5741 0.428353 10.5147 0.407549 10.4543 0.388001C10.3828 0.364824 10.3114 0.343741 10.2379 0.322518C10.1784 0.305065 10.1187 0.287333 10.0585 0.271416C10.0355 0.265133 10.012 0.260246 9.98883 0.254242C10.8352 1.07607 11.4633 2.09602 11.8164 3.2218C12.4958 3.0428 13.1537 2.78981 13.7779 2.46714Z" fill="#808191"/>
<path d="M0 7.72061H3.4286C3.44158 6.3819 3.6358 5.05114 4.0058 3.76451C3.25114 3.56304 2.52272 3.27318 1.83577 2.90094C0.707892 4.26032 0.0622722 5.95535 0 7.72061Z" fill="#808191"/>
<path d="M7.71403 15.9905V12.304C6.71433 12.3181 5.71867 12.4353 4.74298 12.6538C5.41778 14.5397 6.49051 15.8167 7.71403 15.9905Z" fill="#808191"/>
<path d="M7.71406 8.2925H4.00049C4.01501 9.58388 4.20434 10.8674 4.56345 12.108C5.5975 11.872 6.65348 11.7461 7.71406 11.7321V8.2925Z" fill="#808191"/>
<path d="M7.71403 0.0226059C6.49051 0.196437 5.41778 1.47343 4.74298 3.35933C5.71867 3.57798 6.71433 3.69513 7.71403 3.70909V0.0226059Z" fill="#808191"/>
<path d="M7.71406 4.28099C6.65362 4.26702 5.5975 4.14108 4.56345 3.90526C4.20434 5.14581 4.01501 6.42923 4.00049 7.72061H7.71406V4.28099Z" fill="#808191"/>
<path d="M6.00899 0.25396C5.98581 0.259963 5.96264 0.26485 5.93946 0.270854C5.87886 0.28705 5.8191 0.305062 5.75879 0.322515C5.68702 0.343458 5.61581 0.364542 5.54377 0.38744C5.48303 0.407127 5.42327 0.42807 5.36351 0.448874C5.29356 0.473588 5.22347 0.498161 5.15422 0.524411C5.09446 0.547309 5.03554 0.571045 4.97634 0.595339C4.90834 0.623962 4.8402 0.652585 4.77305 0.681068C4.71412 0.706899 4.6559 0.733986 4.59754 0.761212C4.5315 0.792348 4.46573 0.824043 4.40053 0.856994C4.34328 0.886175 4.28604 0.916055 4.22893 0.946493C4.16485 0.98084 4.10132 1.01603 4.03821 1.05205C3.98096 1.08402 3.92469 1.11683 3.86954 1.15034C3.80741 1.18776 3.74597 1.22644 3.68482 1.2647C3.62981 1.29988 3.57522 1.33534 3.52118 1.37193C3.46086 1.41256 3.40138 1.45486 3.34218 1.49717C3.28899 1.53529 3.23607 1.57326 3.18399 1.61166C3.12549 1.65564 3.06964 1.70144 3.01072 1.74709C2.95989 1.78773 2.90865 1.82808 2.85895 1.8701C2.8017 1.9173 2.74739 1.96616 2.69224 2.01503C2.64337 2.0586 2.59408 2.1009 2.54633 2.146C2.49202 2.19668 2.4391 2.24932 2.38604 2.30154C2.33997 2.34706 2.29305 2.39202 2.24781 2.43879C2.23958 2.44745 2.23162 2.45694 2.22296 2.46574C2.84652 2.78799 3.50359 3.04085 4.1823 3.21984C4.53527 2.09476 5.16301 1.07537 6.00899 0.25396Z" fill="#808191"/>
<path d="M2.38479 13.7095C2.43799 13.7619 2.49091 13.8148 2.5455 13.8657C2.59297 13.9097 2.64184 13.9515 2.69057 13.9954C2.746 14.0447 2.80143 14.0942 2.8584 14.1416C2.90782 14.1831 2.95823 14.2232 3.00877 14.2634C3.06602 14.3097 3.12312 14.3558 3.18372 14.4004C3.23524 14.439 3.2876 14.4764 3.33996 14.5148C3.39972 14.5577 3.46003 14.6006 3.52091 14.6418C3.57439 14.6778 3.6287 14.713 3.68301 14.7476C3.74487 14.7873 3.80658 14.8262 3.86955 14.8639C3.9247 14.8971 3.98041 14.9297 4.03626 14.9615C4.10021 14.9981 4.1643 15.0335 4.22894 15.068C4.28605 15.0967 4.34329 15.1278 4.40054 15.1564C4.4663 15.1896 4.53262 15.2216 4.60062 15.2532C4.65787 15.2801 4.71595 15.3067 4.77487 15.3326C4.84259 15.3626 4.91086 15.3897 4.97928 15.4184C5.0382 15.4424 5.09684 15.4661 5.15632 15.4887C5.22571 15.5154 5.29608 15.5402 5.36646 15.5645C5.42593 15.5853 5.48541 15.6063 5.54573 15.6257C5.61722 15.6489 5.68871 15.6701 5.76215 15.6912C5.82163 15.7086 5.88139 15.7264 5.94143 15.7424C5.9646 15.7487 5.98806 15.7536 6.01124 15.7596C5.16484 14.9376 4.53681 13.9177 4.1837 12.7919C3.50499 12.971 2.84792 13.2239 2.22437 13.5463C2.23274 13.5548 2.2407 13.564 2.24908 13.5728C2.29194 13.6192 2.33816 13.6641 2.38479 13.7095Z" fill="#808191"/>
<path d="M1.83577 13.1122C2.52272 12.7401 3.25114 12.4502 4.0058 12.2486C3.6358 10.962 3.44158 9.63121 3.4286 8.2925H0C0.0624118 10.0578 0.707892 11.7527 1.83577 13.1122Z" fill="#808191"/>
</g>
<defs>
<clipPath id="clip0">
<rect width="16" height="16" fill="white"/>
</clipPath>
</defs>
</svg>
